<svg width="21" height="16" viewBox="0 0 21 16" fill="none" xmlns="http://www.w3.org/2000/svg">
<path d="M6.3 8C8.33109 8 9.975 6.32254 9.975 4.25C9.975 2.17746 8.33109 0.5 6.3 0.5C4.26891 0.5 2.625 2.17746 2.625 4.25C2.625 6.32254 4.26891 8 6.3 8ZM8.82 9.07143H8.54766C7.86516 9.40625 7.10719 9.60714 6.3 9.60714C5.49281 9.60714 4.73812 9.40625 4.05234 9.07143H3.78C1.69312 9.07143 0 10.7991 0 12.9286V13.8929C0 14.7801 0.705469 15.5 1.575 15.5H11.025C11.8945 15.5 12.6 14.7801 12.6 13.8929V12.9286C12.6 10.7991 10.9069 9.07143 8.82 9.07143ZM15.75 8C17.4891 8 18.9 6.56027 18.9 4.78571C18.9 3.01116 17.4891 1.57143 15.75 1.57143C14.0109 1.57143 12.6 3.01116 12.6 4.78571C12.6 6.56027 14.0109 8 15.75 8ZM17.325 9.07143H17.2003C16.7442 9.23214 16.2619 9.33929 15.75 9.33929C15.2381 9.33929 14.7558 9.23214 14.2997 9.07143H14.175C13.5056 9.07143 12.8887 9.26897 12.3473 9.58705C13.148 10.4676 13.65 11.6362 13.65 12.9286V14.2143C13.65 14.2879 13.6336 14.3583 13.6303 14.4286H19.425C20.2945 14.4286 21 13.7087 21 12.8214C21 10.7489 19.3561 9.07143 17.325 9.07143Z" fill="#E80C89"/>
</svg>
