<svg width="16" height="20" viewBox="0 0 16 20" fill="none" xmlns="http://www.w3.org/2000/svg">
<path d="M11.3333 15C11.7333 13.7539 12.5625 12.6914 13.3833 11.6328C13.6 11.3555 13.8166 11.0781 14.025 10.7969C14.85 9.68359 15.3333 8.33594 15.3333 6.87891C15.3333 3.07812 12.05 0 7.99996 0C3.94996 0 0.666626 3.07812 0.666626 6.875C0.666626 8.33203 1.14996 9.68359 1.97496 10.793C2.18329 11.0742 2.39996 11.3516 2.61663 11.6289C3.44163 12.6875 4.27079 13.7539 4.66663 14.9961H11.3333V15ZM7.99996 20C9.84163 20 11.3333 18.6016 11.3333 16.875V16.25H4.66663V16.875C4.66663 18.6016 6.15829 20 7.99996 20ZM4.66663 6.875C4.66663 7.21875 4.36663 7.5 3.99996 7.5C3.63329 7.5 3.33329 7.21875 3.33329 6.875C3.33329 4.45703 5.42079 2.5 7.99996 2.5C8.36663 2.5 8.66663 2.78125 8.66663 3.125C8.66663 3.46875 8.36663 3.75 7.99996 3.75C6.15829 3.75 4.66663 5.14844 4.66663 6.875Z" fill="#5E658F"/>
</svg>
