<svg width="14" height="14" viewBox="0 0 14 14" fill="none" xmlns="http://www.w3.org/2000/svg">
<rect width="14" height="14" rx="2" fill="#80C89E"/>
<mask id="mask0_203_2592" style="mask-type:alpha" maskUnits="userSpaceOnUse" x="2" y="3" width="10" height="8">
<path d="M5.13045 9.26064L3.10628 7.23647C2.9973 7.12724 2.84934 7.06585 2.69503 7.06585C2.54073 7.06585 2.39277 7.12724 2.28378 7.23647C2.05628 7.46397 2.05628 7.83147 2.28378 8.05897L4.72212 10.4973C4.94962 10.7248 5.31712 10.7248 5.54462 10.4973L11.7163 4.32564C11.9438 4.09814 11.9438 3.73064 11.7163 3.50314C11.6073 3.39391 11.4593 3.33252 11.305 3.33252C11.1507 3.33252 11.0028 3.39391 10.8938 3.50314L5.13045 9.26064Z" fill="black"/>
</mask>
<g mask="url(#mask0_203_2592)">
<rect width="14" height="14" fill="#343C6A"/>
</g>
</svg>
