<svg width="23" height="18" viewBox="0 0 23 18" fill="none" xmlns="http://www.w3.org/2000/svg">
<path d="M0 2.75C0 1.37109 1.14601 0.25 2.55556 0.25H20.4444C21.854 0.25 23 1.37109 23 2.75V15.25C23 16.6289 21.854 17.75 20.4444 17.75H2.55556C1.14601 17.75 0 16.6289 0 15.25V2.75ZM5.11111 10.25C5.45 10.25 5.77501 10.1183 6.01464 9.88388C6.25427 9.64946 6.38889 9.33152 6.38889 9C6.38889 8.66848 6.25427 8.35054 6.01464 8.11612C5.77501 7.8817 5.45 7.75 5.11111 7.75C4.77222 7.75 4.44722 7.8817 4.20759 8.11612C3.96796 8.35054 3.83333 8.66848 3.83333 9C3.83333 9.33152 3.96796 9.64946 4.20759 9.88388C4.44722 10.1183 4.77222 10.25 5.11111 10.25ZM6.38889 5.25C6.38889 4.91848 6.25427 4.60054 6.01464 4.36612C5.77501 4.1317 5.45 4 5.11111 4C4.77222 4 4.44722 4.1317 4.20759 4.36612C3.96796 4.60054 3.83333 4.91848 3.83333 5.25C3.83333 5.58152 3.96796 5.89946 4.20759 6.13388C4.44722 6.3683 4.77222 6.5 5.11111 6.5C5.45 6.5 5.77501 6.3683 6.01464 6.13388C6.25427 5.89946 6.38889 5.58152 6.38889 5.25ZM5.11111 14C5.45 14 5.77501 13.8683 6.01464 13.6339C6.25427 13.3995 6.38889 13.0815 6.38889 12.75C6.38889 12.4185 6.25427 12.1005 6.01464 11.8661C5.77501 11.6317 5.45 11.5 5.11111 11.5C4.77222 11.5 4.44722 11.6317 4.20759 11.8661C3.96796 12.1005 3.83333 12.4185 3.83333 12.75C3.83333 13.0815 3.96796 13.3995 4.20759 13.6339C4.44722 13.8683 4.77222 14 5.11111 14ZM8.94444 4.3125C8.41337 4.3125 7.98611 4.73047 7.98611 5.25C7.98611 5.76953 8.41337 6.1875 8.94444 6.1875H17.8889C18.42 6.1875 18.8472 5.76953 18.8472 5.25C18.8472 4.73047 18.42 4.3125 17.8889 4.3125H8.94444ZM8.94444 8.0625C8.41337 8.0625 7.98611 8.48047 7.98611 9C7.98611 9.51953 8.41337 9.9375 8.94444 9.9375H17.8889C18.42 9.9375 18.8472 9.51953 18.8472 9C18.8472 8.48047 18.42 8.0625 17.8889 8.0625H8.94444ZM8.94444 11.8125C8.41337 11.8125 7.98611 12.2305 7.98611 12.75C7.98611 13.2695 8.41337 13.6875 8.94444 13.6875H17.8889C18.42 13.6875 18.8472 13.2695 18.8472 12.75C18.8472 12.2305 18.42 11.8125 17.8889 11.8125H8.94444Z" fill="#5E658F"/>
</svg>
