<svg width="23" height="20" viewBox="0 0 23 20" fill="none" xmlns="http://www.w3.org/2000/svg">
<path d="M21.7142 11.2344C22.3931 11.2344 22.992 10.6875 22.992 9.98047C23.0319 9.62891 22.8722 9.31641 22.5528 9.04297L20.4444 7.22656V2.5C20.4444 1.80859 19.8734 1.25 19.1667 1.25H17.8889C17.1821 1.25 16.6111 1.80859 16.6111 2.5V3.93359L12.3585 0.273438C12.1189 0.078125 11.7995 0 11.52 0C11.2405 0 10.921 0.0390625 10.6415 0.3125L0.399306 9.04297C0.119792 9.31641 0 9.62891 0 9.98047C0 10.6836 0.559028 11.2344 1.27778 11.2344H2.55556V13.957C2.55156 13.9922 2.55156 14.0273 2.55156 14.0664V18.4375C2.55156 19.3008 3.26632 20 4.14878 20H4.78767C4.83559 20 4.88351 19.9961 4.93142 19.9922C4.99132 19.9961 5.05122 20 5.11111 20H6.38889H7.34722C8.22969 20 8.94444 19.3008 8.94444 18.4375V17.5V15C8.94444 14.3086 9.51545 13.75 10.2222 13.75H12.7778C13.4845 13.75 14.0556 14.3086 14.0556 15V17.5V18.4375C14.0556 19.3008 14.7703 20 15.6528 20H16.6111H17.9089C17.9648 20 18.0207 20 18.0766 19.9961C18.1205 20 18.1644 20 18.2083 20H18.8472C19.7297 20 20.4444 19.3008 20.4444 18.4375V17.8047C20.4564 17.7031 20.4644 17.5977 20.4644 17.4883L20.4365 11.2305H21.7142V11.2344Z" fill="white"/>
</svg>
