<svg width="21" height="22" viewBox="0 0 21 22" fill="none" xmlns="http://www.w3.org/2000/svg">
<path d="M10.5 0.5C4.70087 0.5 0 5.20087 0 11C0 16.7991 4.70087 21.5 10.5 21.5C16.2991 21.5 21 16.7991 21 11C21 5.20087 16.2991 0.5 10.5 0.5ZM10.5 18.7903C6.19458 18.7903 2.70968 15.3063 2.70968 11C2.70968 6.69458 6.19373 3.20968 10.5 3.20968C14.8054 3.20968 18.2903 6.69373 18.2903 11C18.2903 15.3054 14.8063 18.7903 10.5 18.7903ZM10.5 5.58065C7.50708 5.58065 5.08065 8.00708 5.08065 11C5.08065 13.9929 7.50708 16.4194 10.5 16.4194C13.4929 16.4194 15.9194 13.9929 15.9194 11C15.9194 8.00708 13.4929 5.58065 10.5 5.58065ZM10.5 13.7097C9.00587 13.7097 7.79032 12.4941 7.79032 11C7.79032 9.50587 9.00587 8.29032 10.5 8.29032C11.9941 8.29032 13.2097 9.50587 13.2097 11C13.2097 12.4941 11.9941 13.7097 10.5 13.7097Z" fill="#B1B1B1"/>
</svg>
