<svg width="35" height="47" viewBox="0 0 35 47" fill="none" xmlns="http://www.w3.org/2000/svg">
<g filter="url(#filter0_d_1_1430)">
<rect x="4" width="27" height="39" fill="#E80C89"/>
</g>
<path d="M17.5 25.8217C17.9401 25.8217 18.2969 25.4504 18.2969 24.9924C18.2969 24.5344 17.9401 24.1631 17.5 24.1631C17.0599 24.1631 16.7031 24.5344 16.7031 24.9924C16.7031 25.4504 17.0599 25.8217 17.5 25.8217Z" fill="white"/>
<g clip-path="url(#clip0_1_1430)">
<path d="M20.863 14.6678C20.065 14.0689 19.0626 13.7695 17.8558 13.7695C16.9381 13.7695 16.1632 13.9801 15.5339 14.4019C14.535 15.0619 14.0044 16.183 13.94 17.7638H16.2549C16.2549 17.3027 16.3844 16.8605 16.642 16.4322C16.9003 16.0053 17.3385 15.7918 17.9566 15.7918C18.5852 15.7918 19.0185 15.9652 19.2544 16.3112C19.4917 16.6587 19.61 17.0426 19.61 17.4637C19.61 17.8309 19.4336 18.1667 19.2201 18.4712C19.0929 18.6602 18.9365 18.8261 18.7574 18.9622C18.7574 18.9622 17.5023 19.8 16.9514 20.4731C16.6322 20.8628 16.6035 21.4478 16.5748 22.2856C16.5734 22.3453 16.5951 22.4691 16.7953 22.4691H18.595C18.7742 22.4691 18.8113 22.3315 18.8134 22.2695C18.826 21.965 18.8582 21.8084 18.9121 21.6321C19.0129 21.2992 19.2887 21.0092 19.5974 20.7586L20.2344 20.3019C20.8098 19.8349 21.2683 19.4525 21.4713 19.1523C21.8171 18.6599 22.0607 18.0523 22.0607 17.3311C22.06 16.1546 21.661 15.268 20.863 14.6678ZM17.8187 23.913C17.0214 23.8875 16.3634 24.4623 16.3382 25.3627C16.3137 26.2617 16.9388 26.8568 17.7368 26.8809C18.5691 26.9064 19.2096 26.3513 19.2355 25.4508C19.2593 24.5504 18.6517 23.9385 17.8187 23.913Z" fill="white"/>
</g>
<defs>
<filter id="filter0_d_1_1430" x="0" y="0" width="35" height="47" filterUnits="userSpaceOnUse" color-interpolation-filters="sRGB">
<feFlood flood-opacity="0" result="BackgroundImageFix"/>
<feColorMatrix in="SourceAlpha" type="matrix" values="0 0 0 0 0 0 0 0 0 0 0 0 0 0 0 0 0 0 127 0" result="hardAlpha"/>
<feOffset dy="4"/>
<feGaussianBlur stdDeviation="2"/>
<feComposite in2="hardAlpha" operator="out"/>
<feColorMatrix type="matrix" values="0 0 0 0 0 0 0 0 0 0 0 0 0 0 0 0 0 0 0.25 0"/>
<feBlend mode="normal" in2="BackgroundImageFix" result="effect1_dropShadow_1_1430"/>
<feBlend mode="normal" in="SourceGraphic" in2="effect1_dropShadow_1_1430" result="shape"/>
</filter>
<clipPath id="clip0_1_1430">
<rect width="14" height="14.5698" fill="white" transform="translate(11 13.041)"/>
</clipPath>
</defs>
</svg>
