<svg width="13" height="20" viewBox="0 0 13 20" fill="none" xmlns="http://www.w3.org/2000/svg">
<path d="M3.25002 5.875C3.25002 4.3582 4.41596 3.125 5.85002 3.125H7.15002C8.58409 3.125 9.75002 4.3582 9.75002 5.875V6.02969C9.75002 6.96641 9.29909 7.83867 8.55565 8.34141L6.84127 9.50586C5.81752 10.202 5.20002 11.4008 5.20002 12.6855V12.75C5.20002 13.5105 5.78096 14.125 6.50002 14.125C7.21909 14.125 7.80002 13.5105 7.80002 12.75V12.6898C7.80002 12.3375 7.97065 12.0109 8.2469 11.8219L9.96127 10.6574C11.4481 9.64336 12.35 7.90313 12.35 6.02969V5.875C12.35 2.83711 10.0222 0.375 7.15002 0.375H5.85002C2.97784 0.375 0.650024 2.83711 0.650024 5.875C0.650024 6.63555 1.23096 7.25 1.95002 7.25C2.66909 7.25 3.25002 6.63555 3.25002 5.875ZM6.50002 19.625C6.931 19.625 7.34433 19.4439 7.64907 19.1216C7.95382 18.7993 8.12502 18.3621 8.12502 17.9062C8.12502 17.4504 7.95382 17.0132 7.64907 16.6909C7.34433 16.3686 6.931 16.1875 6.50002 16.1875C6.06905 16.1875 5.65572 16.3686 5.35098 16.6909C5.04623 17.0132 4.87502 17.4504 4.87502 17.9062C4.87502 18.3621 5.04623 18.7993 5.35098 19.1216C5.65572 19.4439 6.06905 19.625 6.50002 19.625Z" fill="#5E658F"/>
</svg>
