<svg width="12" height="10" viewBox="0 0 12 10" fill="none" xmlns="http://www.w3.org/2000/svg">
<path d="M6.00753 5.53108L1.9132 9.77976C1.63021 10.0734 1.1726 10.0734 0.892624 9.77976L0.212243 9.07373C-0.0707476 8.78007 -0.0707476 8.30522 0.212243 8.01468L3.1144 5.00312L0.212243 1.99156C-0.0707476 1.69791 -0.0707476 1.22306 0.212243 0.932521L0.889614 0.220244C1.1726 -0.0734145 1.63021 -0.0734145 1.91019 0.220244L6.00452 4.46892C6.29052 4.76257 6.29052 5.23743 6.00753 5.53108ZM11.7878 4.46892L7.69343 0.220244C7.41044 -0.0734145 6.95284 -0.0734145 6.67286 0.220244L5.99247 0.926273C5.70948 1.21993 5.70948 1.69478 5.99247 1.98532L8.89463 4.99688L5.99247 8.00843C5.70948 8.30209 5.70948 8.77694 5.99247 9.06748L6.67286 9.77351C6.95585 10.0672 7.41345 10.0672 7.69343 9.77351L11.7878 5.52484C12.0707 5.23743 12.0707 4.76257 11.7878 4.46892Z" fill="white"/>
</svg>
