<svg width="22" height="22" viewBox="0 0 22 22" fill="none" xmlns="http://www.w3.org/2000/svg">
<path d="M20 20.0002L15.657 15.6572M15.657 15.6572C16.3999 14.9143 16.9892 14.0324 17.3912 13.0618C17.7933 12.0911 18.0002 11.0508 18.0002 10.0002C18.0002 8.9496 17.7933 7.90929 17.3912 6.93866C16.9892 5.96803 16.3999 5.08609 15.657 4.34321C14.9141 3.60032 14.0322 3.01103 13.0615 2.60898C12.0909 2.20693 11.0506 2 9.99999 2C8.94939 2 7.90908 2.20693 6.93845 2.60898C5.96782 3.01103 5.08588 3.60032 4.34299 4.34321C2.84266 5.84354 1.99979 7.87842 1.99979 10.0002C1.99979 12.122 2.84266 14.1569 4.34299 15.6572C5.84332 17.1575 7.87821 18.0004 9.99999 18.0004C12.1218 18.0004 14.1567 17.1575 15.657 15.6572Z" stroke="#E80C89" stroke-width="2.5" stroke-linecap="round" stroke-linejoin="round"/>
</svg>
