<svg width="17" height="18" viewBox="0 0 17 18" fill="none" xmlns="http://www.w3.org/2000/svg">
<path d="M16.8752 14.0092L8.80158 17.9394C8.70636 17.9794 8.60382 18 8.50021 18C8.39659 18 8.29405 17.9794 8.19883 17.9394L0.124802 14.0092C-0.0395464 13.9288 -0.0395464 13.797 0.124802 13.7163L2.05836 12.7769C2.15373 12.7369 2.2564 12.7163 2.36015 12.7163C2.4639 12.7163 2.56657 12.7369 2.66193 12.7769L8.19883 15.4689C8.294 15.509 8.39655 15.5297 8.50021 15.5297C8.60386 15.5297 8.70641 15.509 8.80158 15.4689L14.3385 12.7769C14.4338 12.7369 14.5364 12.7163 14.6401 12.7163C14.7437 12.7163 14.8463 12.7369 14.9416 12.7769L16.8752 13.7183C17.0416 13.797 17.0416 13.9288 16.8752 14.0092ZM16.8752 8.52359L14.9416 7.5822C14.8463 7.54224 14.7437 7.52163 14.6401 7.52163C14.5364 7.52163 14.4338 7.54224 14.3385 7.5822L8.80158 10.2774C8.70631 10.3172 8.60379 10.3377 8.50021 10.3377C8.39662 10.3377 8.2941 10.3172 8.19883 10.2774L2.66193 7.5822C2.56657 7.54225 2.4639 7.52164 2.36015 7.52164C2.2564 7.52164 2.15373 7.54225 2.05836 7.5822L0.124802 8.52359C-0.0395464 8.60395 -0.0395464 8.73613 0.124802 8.81729L8.19883 12.7468C8.29405 12.7867 8.39659 12.8073 8.50021 12.8073C8.60382 12.8073 8.70636 12.7867 8.80158 12.7468L16.8752 8.81729C17.0416 8.73613 17.0416 8.60435 16.8752 8.52359ZM0.124802 3.95448L8.19842 7.5822C8.39215 7.65654 8.60744 7.65654 8.80117 7.5822L16.8752 3.95448C17.0395 3.87975 17.0395 3.75801 16.8752 3.68368L8.80117 0.0563568C8.6076 -0.0187856 8.39199 -0.0187856 8.19842 0.0563568L0.124802 3.68368C-0.0416007 3.75801 -0.0416007 3.87975 0.124802 3.95448Z" fill="#B1B1B1"/>
</svg>
